<svg width="305" height="634" viewBox="0 0 305 634" fill="none" xmlns="http://www.w3.org/2000/svg">
<rect x="152" y="343" width="87" height="24" fill="#FFB123"/>
<rect x="256" y="343" width="49" height="24" fill="#FFB123"/>
<rect x="122" y="382" width="26" height="19" fill="#343233"/>
<rect x="162" y="382" width="42" height="19" fill="#343233"/>
<rect x="218" y="382" width="12" height="19" fill="#343233"/>
<rect x="244" y="382" width="25" height="19" fill="#343233"/>
<rect x="-80" y="382" width="188" height="19" fill="#343233"/>
<rect x="-80" y="411" width="101" height="12" fill="#DF910D"/>
<rect x="30" y="411" width="68" height="12" fill="#DF910D"/>
<rect x="107" y="411" width="22" height="12" fill="#DF910D"/>
<rect x="140" y="411" width="35" height="12" fill="#DF910D"/>
<rect x="186" y="411" width="12" height="12" fill="#DF910D"/>
<rect x="-80" y="343" width="215" height="24" fill="#FFB123"/>
<rect x="-80" y="312" width="183" height="15" fill="#F8B43B"/>
<rect x="-80" y="287" width="194" height="9" fill="#88847C"/>
<rect x="129" y="288" width="79" height="9" fill="#88847C"/>
<rect x="223" y="287" width="16" height="9" fill="#88847C"/>
<rect x="249" y="287" width="35" height="9" fill="#88847C"/>
<rect x="118" y="312" width="49" height="15" fill="#F8B43B"/>
<rect x="183" y="312" width="35" height="15" fill="#F8B43B"/>
<rect x="230" y="312" width="18" height="15" fill="#F8B43B"/>
<rect x="153" y="112" width="26" height="47" fill="#FFE8C2"/>
<rect x="26" y="112" width="96" height="47" fill="#FFE8C2"/>
<rect y="46" width="104" height="36" fill="#FFE8C2"/>
<rect x="133" y="46" width="63" height="36" fill="#FFE8C2"/>
<rect x="232" y="46" width="26" height="36" fill="#FFE8C2"/>
<rect width="35" height="14" fill="#FFE8C2"/>
<rect x="67" width="16" height="14" fill="#FFE8C2"/>
<rect x="115" width="64" height="14" fill="#FFE8C2"/>
<rect x="41" y="556" width="81" height="30" fill="#EFE7D8"/>
<rect x="22" y="618" width="64" height="16" fill="#EFE7D8"/>
<rect y="556" width="14" height="30" fill="#EFE7D8"/>
<rect x="153" y="556" width="17" height="30" fill="#EFE7D8"/>
<rect x="201" y="556" width="48" height="30" fill="#EFE7D8"/>
</svg>
